<svg xmlns="http://www.w3.org/2000/svg" width="512" height="512" viewBox="0 0 512 512">
  <defs>
    <linearGradient id="bg" x1="0" y1="0" x2="1" y2="1">
      <stop offset="0%" stop-color="#faf8f2"/>
      <stop offset="100%" stop-color="#dfe7d8"/>
    </linearGradient>

    <filter id="shadow" x="-20%" y="-20%" width="140%" height="140%">
      <feDropShadow dx="0" dy="8" stdDeviation="12" flood-color="#00000022"/>
    </filter>
  </defs>

  <rect width="512" height="512" rx="120" fill="url(#bg)"/>

  <g filter="url(#shadow)">
    <circle cx="256" cy="240" r="150" fill="#ffffff" opacity="0.92"/>
  </g>

  <g transform="translate(256 240)">
    <path
      d="M0 -90
         C65 -90 100 -40 100 15
         C100 85 45 120 0 145
         C-45 120 -100 85 -100 15
         C-100 -40 -65 -90 0 -90Z"
      fill="#6f8f5f"
    />

    <path
      d="M0 -70
         L0 110"
      stroke="#fefcf5"
      stroke-width="10"
      stroke-linecap="round"
    />

    <path
      d="M0 -20
         C30 -10 50 10 68 35"
      stroke="#fefcf5"
      stroke-width="8"
      fill="none"
      stroke-linecap="round"
    />

    <path
      d="M0 20
         C-30 30 -50 50 -68 75"
      stroke="#fefcf5"
      stroke-width="8"
      fill="none"
      stroke-linecap="round"
    />
  </g>

  <text
    x="256"
    y="438"
    text-anchor="middle"
    font-size="38"
    font-family="Arial, sans-serif"
    fill="#355e3b"
  >
    דקה ביום
  </text>
</svg>